<?xml version="1.0" encoding="utf-8"?>
<!-- Generator: Adobe Illustrator 18.0.0, SVG Export Plug-In . SVG Version: 6.00 Build 0)  -->
<!DOCTYPE svg PUBLIC "-//W3C//DTD SVG 1.1//EN" "http://www.w3.org/Graphics/SVG/1.1/DTD/svg11.dtd">
<svg version="1.1" id="Layer_1" xmlns="http://www.w3.org/2000/svg" xmlns:xlink="http://www.w3.org/1999/xlink" x="0px" y="0px"
	 viewBox="0 0 66.7 197.3" enable-background="new 0 0 66.7 197.3" xml:space="preserve">
<g>
	<path fill="#FFFFFF" d="M66.5,60.8c0,9.7,0.2,19.3,0,29c-0.4,16.6-12.9,30.3-28.7,32C20.2,123.7,5.2,113.4,1,96.6
		c-0.5-2.1-0.8-4.3-0.8-6.4c-0.1-19.5-0.3-38.9,0-58.4c0.3-15.1,11.2-27.9,25.7-31c15-3.2,30.3,3.6,36.8,17.2
		c2.3,4.8,3.3,10.5,3.7,15.8C66.9,42.8,66.5,51.8,66.5,60.8C66.5,60.8,66.5,60.8,66.5,60.8z M62.2,61.1c0-9,0.1-18,0-27
		C62,17.1,49.5,4.4,33.1,4.5C16.9,4.6,4.5,17.2,4.4,34c-0.1,18-0.1,35.9,0,53.9c0.1,16.9,12.9,29.9,29.1,29.8
		c16-0.1,28.6-13,28.8-29.6C62.3,79.1,62.2,70.1,62.2,61.1z"/>
	<path fill="#FFFFFF" d="M33.5,161.2c9.4-9.4,18.3-18.6,27.5-27.5c1.1-1.1,3.2-1.2,4.8-1.8c-0.6,1.7-0.8,3.7-2,4.9
		c-8.9,9.2-18.1,18.1-27.1,27.3c-2.5,2.5-4.2,3-6.9,0.2c-9-9.3-18.4-18.4-27.4-27.7c-1.1-1.1-1.1-3.2-1.7-4.9
		c1.6,0.7,3.7,0.9,4.8,2.1c8.1,7.9,16.1,16,24.1,23.9C30.9,158.8,32.1,159.9,33.5,161.2z"/>
	<path fill="#FFFFFF" d="M33.2,192.4c9.3-9.3,18-18,26.7-26.7c0.8-0.8,1.5-1.9,2.5-2.4c1-0.5,2.3-0.3,3.5-0.4
		c-0.2,1.2,0.1,2.7-0.5,3.5c-2.3,2.6-4.9,5-7.3,7.5c-7.1,7.1-14.2,14-21.1,21.2c-2.4,2.5-4.1,3.1-6.9,0.3
		c-9.1-9.4-18.6-18.6-27.8-28c-1-1-1-3-1.4-4.5c1.5,0.5,3.5,0.6,4.5,1.6C14.5,173.6,23.6,182.8,33.2,192.4z"/>
	<path fill="#FFFFFF" d="M39.9,27.8c-0.1,3.6-3.2,6.6-6.8,6.5c-3.6-0.1-6.6-3.2-6.5-6.7c0.1-3.5,3.3-6.6,6.8-6.5
		C36.9,21.1,40,24.3,39.9,27.8z"/>
</g>
</svg>
